<?xml version="1.0" encoding="UTF-8" standalone="no"?><!DOCTYPE svg PUBLIC "-//W3C//DTD SVG 1.1//EN"
        "http://www.w3.org/Graphics/SVG/1.1/DTD/svg11.dtd">
<svg width="100%" height="100%" viewBox="0 0 32 32" version="1.1" xmlns="http://www.w3.org/2000/svg"
     style="fill-rule:evenodd;clip-rule:evenodd;stroke-linejoin:round;stroke-miterlimit:2;">
    <style>
        path.black {
            fill: #1e1838;
        }

        @media (prefers-color-scheme: dark) {
            path.black {
                fill: white;
            }
        }
    </style>
    <path d="M16.114,22.343c-1.714,-0 -3.2,-0.914 -3.885,-2.514c-0.458,-1.029 -0.572,-2.172 -0.229,-3.315c0.343,-1.143 1.143,-1.943 2.171,-2.514c0.572,-0.343 1.258,-0.457 1.829,-0.457c1.714,-0 3.2,0.914 3.886,2.514c1.028,2.172 0.114,4.8 -2.057,5.829c-0.458,0.228 -1.029,0.457 -1.715,0.457Z"
          style="fill:#F5C725;fill-rule:nonzero;"/>
    <path d="M16.114,15.943c0.572,-0 1.486,0.343 1.829,1.143c0.343,0.685 0.228,1.257 0.114,1.6c-0.114,0.343 -0.343,0.8 -1.028,1.143c-0.229,0.114 -0.572,0.228 -0.915,0.228c-0.571,0 -1.485,-0.343 -1.828,-1.143c-0.457,-1.028 -0.115,-2.285 0.914,-2.743c0.343,-0.228 0.571,-0.228 0.914,-0.228Zm0,-4.572c-0.914,0 -1.943,0.229 -2.857,0.686c-3.314,1.486 -4.686,5.486 -3.086,8.8c1.143,2.4 3.543,3.772 5.943,3.772c0.915,-0 1.943,-0.229 2.857,-0.686c3.315,-1.6 4.686,-5.6 3.086,-8.8c-1.143,-2.4 -3.428,-3.772 -5.943,-3.772Z"
          style="fill:#F5C725;fill-rule:nonzero;"/>
    <path d="M16.114,6.114c-0.8,0 -1.485,-0.457 -1.828,-1.143c-0.457,-1.028 -0,-2.171 0.914,-2.628c0.229,-0.114 0.571,-0.229 0.914,-0.229c0.8,0 1.486,0.457 1.829,1.143c0.457,1.029 0.114,2.172 -0.914,2.629c-0.343,0.114 -0.572,0.228 -0.915,0.228Z"
          style="fill:#F5C725;fill-rule:nonzero;"/>
    <path d="M16.114,3.829c0,-0 0.229,-0 0.229,0.114c0.114,0.114 -0,0.343 -0.114,0.343l-0.115,-0c0,-0 -0.228,-0 -0.228,-0.115c-0.115,-0.114 -0,-0.342 0.114,-0.342l0.114,-0Zm0,-3.429c-0.571,-0 -1.143,0.114 -1.6,0.343c-1.828,0.914 -2.628,3.086 -1.714,5.028c0.686,1.372 1.943,2.058 3.314,2.058c0.572,-0 1.143,-0.115 1.6,-0.343c1.829,-0.915 2.629,-3.086 1.715,-4.915c-0.572,-1.371 -1.943,-2.171 -3.315,-2.171Z"
          style="fill:#F5C725;fill-rule:nonzero;"/>
    <path class="black"
          d="M27.314,10.914c0,-0.114 -0.114,-0.343 -0.343,-0.571c0,-0.114 -0.114,-0.229 -0.114,-0.229c-0.457,-0.8 -1.143,-1.943 -1.143,-1.943l-2.514,1.486l1.486,2.629c1.943,3.657 2.057,7.657 0.571,10.857c-1.6,3.428 -5.028,5.371 -9.143,5.371c-4.228,0 -7.543,-1.943 -9.143,-5.371c-1.6,-3.2 -1.371,-7.2 0.572,-10.857l1.6,-2.629l-2.743,-1.486c-0,0 -0.686,1.029 -1.143,1.943c-0.114,0 -0.228,0.115 -0.228,0.229c-0.115,0.228 -0.229,0.457 -0.343,0.571c-2.286,4.572 -2.515,9.486 -0.457,13.715c2.171,4.457 6.4,6.971 11.771,6.971c5.257,0 9.6,-2.514 11.771,-6.971c2.058,-4.229 1.829,-9.258 -0.457,-13.715Z"
          style="fill-rule:nonzero;"/>
</svg>